<svg width="114" height="21" viewBox="0 0 114 21" xmlns="http://www.w3.org/2000/svg"><title>sk-2014-long-rgb-notag-1</title><desc>Created with Sketch.</desc><g fill="none" fill-rule="evenodd"><g><g><g><g id="Shape"><path d="M5.902 16.62c0 .667-.54.894-1.21.51l-3.48-2.006C.54 14.74 0 13.884 0 13.216v-3.45c0-.667.54-.895 1.21-.51l3.48 2.005c.67.386 1.212 1.242 1.212 1.91v3.45z" fill="#AB3142"/><path d="M12.297 7.587c0 .668-.54.895-1.21.51l-3.48-2.005c-.67-.385-1.21-1.24-1.21-1.908V.734c0-.667.54-.895 1.21-.51l3.48 2.006c.67.384 1.21 1.24 1.21 1.907v3.45z" fill="#378283"/><path d="M12.297 13.946c0 .668-.54.895-1.21.51l-3.48-2.005c-.67-.384-1.21-1.24-1.21-1.907v-3.45c0-.667.54-.895 1.21-.51l3.48 2.005c.67.385 1.21 1.24 1.21 1.908v3.45z" fill="#074369"/><path d="M12.297 20.3c0 .67-.54.896-1.21.512l-3.48-2.006c-.67-.385-1.21-1.24-1.21-1.908v-3.45c0-.667.54-.895 1.21-.51l3.48 2.005c.67.385 1.21 1.24 1.21 1.908v3.45z" fill="#CF5738"/><path d="M5.902 10.26c0 .668-.54.896-1.21.51L1.21 8.766C.54 8.38 0 7.525 0 6.857v-3.45c0-.667.54-.895 1.21-.51l3.48 2.006c.67.384 1.212 1.24 1.212 1.907v3.45z" fill="#6B3149"/></g><g id="Shape"><path d="M18.662 4.188c0 .668-.54 1.52-1.207 1.904L13.99 8.094c-.666.385-1.207.157-1.207-.51v-3.45c0-.668.54-1.52 1.207-1.904L17.455.228c.666-.385 1.207-.157 1.207.51v3.45z" fill="#75B691"/><path d="M18.662 10.547c0 .667-.54 1.52-1.207 1.904l-3.465 2.003c-.666.384-1.207.157-1.207-.51v-3.45c0-.668.54-1.52 1.207-1.905l3.465-2c.666-.386 1.207-.158 1.207.51v3.45z" fill="#D1982A"/></g></g><g fill="#1B2838"><path d="M29.776 13.047c0-.887-1.047-1.032-2.313-1.103-2.747-.2-4.553-1.142-4.59-3.893-.1-5.153 8.627-5.448 9.57-.89.095.46-.26.89-.73.89h-1.67c-.295 0-.557-.172-.68-.44-.54-1.2-3.318-.95-3.412.405-.07.958.867 1.158 2.007 1.284 2.512.27 4.97.596 4.97 3.763 0 5.02-9.167 5.433-10.147.785-.098-.463.263-.895.733-.895h1.744c.274 0 .533.146.655.393.583 1.205 3.864 1.052 3.864-.3zM43.817 16.83H42c-.413 0-.746-.332-.746-.744v-4.342H37.35v4.342c0 .412-.332.745-.744.745h-1.818c-.412 0-.745-.332-.745-.744V4.903c0-.413.333-.746.745-.746h1.818c.412 0 .745.333.745.746v3.85h3.904v-3.85c0-.413.333-.746.745-.746h1.817c.41 0 .744.333.744.746v11.18c0 .415-.332.748-.743.748zM45.753 10.512c0-8.76 12.975-8.76 12.975 0 0 8.78-12.975 8.78-12.975 0zm3.22.004c0 4.592 6.554 4.506 6.554 0 0-4.495-6.553-4.58-6.553 0zM59.904 16.086V4.903c0-.413.333-.746.744-.746h4.82c6.055.02 6.055 9.432 0 9.432h-2.33v2.492c0 .412-.334.745-.746.745h-1.744c-.41.004-.744-.33-.744-.74zm5.55-9.032c-.76-.02-1.572 0-2.313 0v3.62h2.313c1.77.003 1.877-3.6 0-3.62zM90.224 7.054H86.29v1.793h3.558c.41 0 .745.334.745.746v1.386c0 .41-.334.745-.745.745H86.29v2.225h4.1c.41 0 .743.334.743.746v1.386c0 .412-.333.745-.744.745h-6.573c-.412 0-.745-.333-.745-.745V4.902c0-.412.333-.745.745-.745h6.407c.412 0 .745.333.745.746v1.405c0 .412-.334.746-.746.746zM99.802 7.054h-3.935v1.793h3.56c.41 0 .743.334.743.746v1.386c0 .41-.333.745-.744.745h-3.56v2.225h4.1c.412 0 .745.334.745.746v1.386c0 .412-.332.745-.743.745h-6.572c-.412 0-.745-.333-.745-.745V4.902c0-.412.333-.745.745-.745h6.407c.41 0 .745.333.745.746v1.405c0 .412-.334.746-.745.746zM102.228 16.086V4.903c0-.413.333-.746.744-.746h4.824c6.055.02 6.055 9.432 0 9.432h-2.33v2.492c0 .412-.334.745-.746.745h-1.744c-.415.004-.748-.33-.748-.74zm5.55-9.032c-.76-.02-1.573 0-2.313 0v3.62h2.312c1.77.003 1.88-3.6 0-3.62zM82.034 16.2L77.94 9.832c2.005-2.308 4.062-5.005 4.094-5.04.06-.067.082-.255.02-.37-.087-.156-.25-.262-.443-.262h-2.66c-.267 0-.482.177-.647.378l-3.817 4.706v-4.34c0-.414-.333-.747-.745-.747h-1.797c-.412 0-.745.333-.745.746v7.78l-.004.003h.004v3.396c0 .412.333.745.745.745h1.798c.413 0 .746-.333.746-.745v-2.29l1.285-1.475 2.533 4.13c.133.23.38.377.647.377h2.66c.193 0 .357-.106.443-.263.063-.11.05-.25-.02-.36z" id="Shape"/></g><path d="M111.85 4.224c0-.314.1-.577.308-.793.204-.215.455-.32.75-.32.293 0 .54.105.747.32.204.217.31.48.31.794 0 .314-.102.577-.31.792-.208.216-.454.322-.744.322-.293 0-.544-.106-.748-.322-.204-.215-.313-.478-.313-.792zm.124 0c0 .278.09.51.27.702.18.193.4.287.66.287.253 0 .473-.094.653-.287.18-.192.27-.424.27-.702 0-.275-.09-.507-.27-.7-.18-.188-.4-.286-.654-.286-.26 0-.478.095-.66.287-.18.192-.27.424-.27.7zm.69.086v.53h-.145V3.572h.383c.145 0 .258.03.337.094.078.063.117.153.117.275 0 .068-.02.127-.055.174-.035.047-.086.09-.156.117.066.025.117.064.145.12.032.05.044.117.044.19v.084c0 .04.004.075.008.11.004.03.01.06.02.078v.024h-.154c-.007-.02-.015-.05-.015-.09-.004-.04-.004-.083-.004-.122V4.54c0-.08-.02-.144-.06-.18-.04-.034-.102-.054-.188-.054h-.278v.004zm0-.137h.27c.078 0 .145-.02.196-.06.055-.04.078-.094.078-.168 0-.086-.023-.145-.07-.18-.047-.036-.126-.056-.24-.056h-.238v.463h.004z" fill="#1B2838"/></g></g></g></svg>